# xmcd CD database file
# Copyright (C) 1993-1998 Ti Kan
# 
# Track frame offsets:
#     183
#     17095
#     35033
#     52145
#     67308
#     79308
#     103870
#     128433
#     142120
#     156195
#     177583
#     193833
#     217845
#     236745
# 
# Disc length: 3503 seconds
# 
# Revision: 1
# Processed by: cddbd v1.4b41PL1 Copyright (c) Steve Scherf et al.
# Submitted via: DiscPlay 4.0.4
# 
DISCID=d70dad0e
DTITLE=Big Sugar - Big Sugar
DYEAR=1900
DGENRE=
TTITLE0=Come Back Baby
TTITLE1=Groundhog Day
TTITLE2=Goodbye Train
TTITLE3=Sleep In Late
TTITLE4=Just About Sunrise
TTITLE5=So Many Roads (For Clive)
TTITLE6=Bemsha Swing
TTITLE7=Nowhere To Go
TTITLE8=Shot In The Dark
TTITLE9=Let's Talk It Over
TTITLE10=Motherless Children
TTITLE11=Devil Got My Woman
TTITLE12=Stop Breaking Down
TTITLE13=In My Time Of Dying
EXTD=
EXTT0=
EXTT1=
EXTT2=
EXTT3=
EXTT4=
EXTT5=
EXTT6=
EXTT7=
EXTT8=
EXTT9=
EXTT10=
EXTT11=
EXTT12=
EXTT13=
PLAYORDER=
